<svg viewBox="0 0 180 72" fill="none" xmlns="http://www.w3.org/2000/svg">
<g clip-path="url(#clip0_434_3048)">
<path d="M151.282 34.8173C152.72 34.9589 154.49 34.3569 155.609 35.5113C156.268 36.085 156.374 36.9703 156.331 37.7847C156.317 38.6558 156.317 39.5269 156.317 40.398H159.299C159.285 41.2479 159.426 42.2394 158.754 42.9263C158.173 43.6416 157.21 43.8329 156.317 43.7833C156.317 47.2181 156.317 50.653 156.317 54.0878C156.289 54.5907 156.516 55.1572 157.04 55.313C157.783 55.4759 158.541 55.3555 159.299 55.3909C159.299 56.6374 159.285 57.8839 159.299 59.1374C157.564 59.1516 155.822 59.2011 154.079 59.0524C153.385 58.9958 152.67 58.7904 152.16 58.2946C151.494 57.6643 151.289 56.7224 151.282 55.8442C151.282 48.8329 151.282 41.8215 151.275 34.8173" fill="white"/>
<path d="M125.099 42.551C126.409 40.9788 128.435 40.0793 130.496 39.9094C132.783 39.7111 135.227 40.0368 137.167 41.3187C138.824 42.4093 139.823 44.2224 140.34 46.0637C138.647 46.0637 136.955 46.0354 135.269 46.0637C134.851 45.3909 134.377 44.711 133.633 44.364C132.217 43.7266 130.333 43.8612 129.214 44.9802C128.229 46.0708 127.975 47.5793 127.925 48.9745C127.875 50.5822 127.925 52.3173 128.831 53.7266C130.099 55.8017 133.569 55.8796 135.085 54.0312C135.418 53.6841 135.822 53.3442 136.339 53.3442C137.72 53.2875 139.101 53.3442 140.496 53.3159C139.993 55.1572 138.931 56.8853 137.295 57.9405C135.099 59.4278 132.245 59.7323 129.66 59.2861C127.373 58.9108 125.347 57.4306 124.249 55.4476C123.123 53.4292 122.854 51.0496 122.939 48.7833C123.038 46.5666 123.619 44.279 125.113 42.551" fill="white"/>
<path d="M142.422 40.2918C143.64 40.3697 144.922 40.0935 146.076 40.4972C146.933 40.8867 147.55 41.7649 147.514 42.6997V59.1374C145.822 59.1303 144.115 59.1374 142.415 59.1374C142.429 52.8484 142.422 46.5737 142.415 40.2918" fill="white"/>
<path d="M161.19 40.2918H166.827C167.946 44.0595 169.058 47.8343 170.177 51.5949C170.347 52.1827 170.46 52.806 170.779 53.3513C171.933 49.5057 173.059 45.6317 174.2 41.779C174.419 40.9575 175.198 40.3555 176.069 40.313C177.38 40.2564 178.69 40.313 180.007 40.2918C177.705 46.9136 175.418 53.5567 173.116 60.1926C172.486 61.9986 171.898 64.0595 170.17 65.1997C168.251 66.0921 166.006 65.9858 163.952 65.7521V61.8711C165.191 61.8499 166.622 62.0198 167.642 61.1771C168.314 60.6601 168.215 59.7252 167.953 59.0241C165.701 52.7847 163.442 46.5382 161.19 40.2989" fill="white"/>
<path d="M137.401 29.5623C139.667 29.8031 141.99 30.2139 144.001 31.3329C145.34 32.0906 146.523 33.2946 146.799 34.8244C146.912 35.7238 146.877 36.6516 146.65 37.5368C145.135 35.6884 143.477 33.8541 141.303 32.728C142.783 34.4632 144.441 36.1133 145.467 38.1601C143.938 38.5283 142.259 38.2167 140.963 37.3456C139.476 36.3399 138.591 34.6969 138.088 33.0397C137.705 31.9065 137.585 30.7238 137.401 29.5552" fill="#6DBD45"/>
<path d="M5.18414 39.0736C5.18414 41.3824 5.18414 43.6983 5.18414 46C7.01133 46.0212 8.84561 46.0354 10.6728 46C11.5722 46 12.5283 45.7734 13.187 45.1431C13.8527 44.5127 14.0368 43.5708 14.0652 42.7068C14.0935 41.7153 13.8739 40.6317 13.1516 39.9023C12.4292 39.2649 11.4235 39.0595 10.4603 39.0736C8.70397 39.0736 6.94051 39.0736 5.18414 39.0736ZM0.0141643 37.381C-0.0566572 36.0212 1.18272 34.7606 2.59915 34.8102C5.62323 34.8173 8.65439 34.8173 11.6785 34.8173C13.6473 34.8527 15.7507 35.3626 17.1459 36.8003C18.5411 38.1246 19.051 40.0722 19.1572 41.9278C19.2635 44.0382 18.9306 46.3045 17.5708 48.0326C16.3031 49.6756 14.1218 50.3697 12.0751 50.4193C9.78045 50.4334 7.48584 50.4193 5.18414 50.4334C5.1983 53.3371 5.18414 56.2337 5.1983 59.1374H0C0.0141643 51.8853 0 44.6331 0.0141643 37.381Z" fill="#6DBD45"/>
<path d="M21.0552 34.8173C21.898 34.8173 22.7337 34.796 23.5765 34.8102C24.8867 34.7606 26.0623 35.9221 26.034 37.1969C26.0482 39.0382 26.034 40.8654 26.034 42.6997C26.983 41.1841 28.6261 40.1501 30.432 39.9448C34.1289 39.272 38.0241 41.8853 38.8385 45.4122C39.0581 46.3187 39.1501 47.2606 39.1572 48.1955V59.1303C37.5071 59.1303 35.8711 59.1303 34.2139 59.1303C34.1926 55.7309 34.2139 52.3385 34.2139 48.9462C34.2564 47.0907 33.364 44.9518 31.4306 44.3074C30.0567 43.9108 28.3994 44.1657 27.4079 45.221C26.4023 46.2762 26.0552 47.7422 26.0482 49.1374V59.1232C24.3909 59.1232 22.7266 59.1232 21.0694 59.1232C21.0694 51.0142 21.0694 42.8909 21.0694 34.8031" fill="#6DBD45"/>
<path d="M50.0142 50.6955C48.9943 50.915 47.8612 51.085 47.068 51.8003C46.2606 52.7422 46.2606 54.3499 47.2592 55.1643C48.0453 55.7309 49.1076 55.6601 50.0283 55.5467C51.3527 55.3838 52.5779 54.4986 53.0595 53.2663C53.534 52.1261 53.3782 50.8796 53.4065 49.6827C52.3229 50.1572 51.1756 50.4759 50.0212 50.6955M44.8796 41.0567C46.7351 39.8952 49.051 39.7606 51.1969 39.8881C53.0807 40.0227 55.0921 40.3555 56.551 41.602C57.585 42.4518 58.1303 43.755 58.1445 45.0581C58.1445 47.2748 58.1374 49.4986 58.1445 51.7224C58.1374 53.4858 57.7974 55.3626 56.5652 56.7365C55.1133 58.5425 52.6771 59.279 50.3895 59.3782C48.1374 59.6261 45.6799 59.5057 43.789 58.1601C42.238 57.1544 41.6785 55.228 41.7564 53.5C41.6856 51.8782 42.2238 50.0581 43.6969 49.1303C45.4249 47.9547 47.5496 47.6076 49.5963 47.3598C50.7295 47.1756 51.9901 47.0836 52.8966 46.3258C53.5411 45.7734 53.364 44.6331 52.5991 44.279C51.9122 43.9462 51.1331 43.847 50.3824 43.7833C49.1643 43.7337 47.7125 43.9603 47.1034 45.1289C45.4745 45.1431 43.8385 45.136 42.2167 45.1289C42.4363 43.4858 43.4136 41.9561 44.8654 41.0637" fill="#6DBD45"/>
<path d="M75.0708 41.9703C76.8838 40.6176 79.1785 39.9093 81.4589 39.8527C83.5482 39.9093 85.7932 40.2422 87.4433 41.602C88.9802 40.3555 91.0198 39.9943 92.9674 39.8739C95.1841 39.8244 97.4504 40.4334 99.2847 41.6728C100.609 42.5935 101.261 44.1516 101.516 45.6742C101.785 47.0269 101.686 48.415 101.7 49.7748V59.1516C100.581 59.1091 99.4263 59.2578 98.3144 59.0312C97.3584 58.762 96.6431 57.8343 96.6714 56.8499V47.4164C96.6714 46.5524 96.5722 45.5892 95.9278 44.9377C94.5467 43.5283 91.9901 43.5283 90.5949 44.9164C89.9858 45.5184 89.8442 46.4037 89.8442 47.2181C89.83 51.1912 89.8442 55.1714 89.83 59.1516C88.1445 59.1516 86.4518 59.1516 84.7592 59.1516V47.0269C84.7875 46.1487 84.483 45.1856 83.7181 44.6402C82.3159 43.5708 80.1062 43.6133 78.8314 44.8598C78.2578 45.4193 78.0595 46.2337 78.0736 47.0198C78.0595 51.0567 78.0736 55.1006 78.0736 59.1445C76.3598 59.1445 74.6601 59.1445 72.9533 59.1445C72.9533 55.2422 72.9391 51.3187 72.9533 47.4164C73.0524 45.4688 73.4632 43.3159 75.0637 41.9773" fill="#6DBD45"/>
<path d="M111.091 50.9363C110.205 51.17 109.129 51.517 108.853 52.4731C108.371 53.5567 108.803 55.1289 110.064 55.4759C111.756 55.9008 113.824 55.4618 114.844 53.9887C115.751 52.7351 115.559 51.1275 115.574 49.6898C114.15 50.3201 112.606 50.6034 111.098 50.9292M108.265 40.4618C110.538 39.6402 113.045 39.7465 115.404 40.1289C117.337 40.4618 119.356 41.517 120.035 43.4221C120.559 45.0935 120.255 46.8711 120.34 48.585C120.255 51.0921 120.68 53.847 119.235 56.0921C117.953 58.1601 115.446 59.2011 113.038 59.3428C110.765 59.5836 108.279 59.6261 106.303 58.3654C104.795 57.5581 104.03 55.8867 103.945 54.279C103.831 52.6501 104.03 50.7875 105.297 49.5977C106.877 48.2309 109.023 47.6997 111.076 47.4589C112.387 47.2252 113.839 47.2252 114.95 46.4391C115.687 45.9504 115.637 44.7606 114.873 44.3357C114.214 43.9674 113.449 43.8895 112.705 43.7974C111.459 43.7195 109.929 43.9249 109.285 45.1218C107.663 45.136 106.034 45.1289 104.405 45.1218C104.667 43.0184 106.225 41.1841 108.258 40.4688" fill="#6DBD45"/>
<path d="M63.5836 42.3739C65.7649 40.6601 68.704 40.228 71.4306 40.2918C71.4306 41.9702 71.4306 43.6629 71.4306 45.3484C70.0142 45.3697 68.4703 45.1572 67.1955 45.9008C66.0269 46.5453 65.6232 47.9405 65.6232 49.1657V59.1445C63.9235 59.1445 62.2309 59.1445 60.5312 59.1445C60.5453 55.8159 60.5099 52.5085 60.5453 49.194C60.5878 46.6657 61.5227 44.0099 63.5836 42.381" fill="#6DBD45"/>
<path d="M27.3159 26.5241V12.0198H31.3598L37.2238 21.4674H37.3088L37.2238 12.0198H40.6657V26.5241H36.6431L30.7153 17.0623H30.6728L30.7578 26.5241H27.3159Z" fill="white"/>
<path d="M43.6898 26.5241V12.0198H47.2521V17.5085H52.9533V12.0198H56.4802V26.5241H52.9533V20.4618H47.2521V26.5241H43.6898Z" fill="white"/>
<path d="M57.7266 26.5241L63.9023 12.0198H67.3017L73.4136 26.5241H69.4759L68.3144 23.6771H62.6558L61.5793 26.5241H57.7266ZM64.7309 10.6742L62.0751 7.72096H65.517L67.2805 10.6742H64.7309ZM63.6756 20.8513H67.3867L65.5595 15.9575V15.8725L65.5382 15.9717L63.6756 20.8442V20.8513Z" fill="white"/>
<path d="M81.6855 26.5241V14.9943H77.5637V12.0269H89.3768V14.9943H85.2337V26.5312H81.6926L81.6855 26.5241Z" fill="white"/>
<path d="M90.9915 26.5241V12.0198H94.5538V17.5085H100.255V12.0198H103.782V26.5241H100.255V20.4618H94.5538V26.5241H90.9915Z" fill="white"/>
<path d="M112.946 26.9136C111.671 26.9136 110.574 26.6657 109.639 26.1771C108.704 25.6884 107.982 25.0014 107.472 24.1161C106.962 23.238 106.707 22.211 106.707 21.0567V12.0198H110.191V20.7663C110.191 21.7224 110.446 22.4589 110.956 22.9759C111.466 23.4929 112.132 23.755 112.946 23.755C113.86 23.755 114.547 23.4788 115.021 22.9263C115.489 22.3739 115.729 21.6516 115.729 20.7663V12.0198H119.271V21.0567C119.271 22.2181 119.008 23.238 118.491 24.1161C117.974 24.9943 117.231 25.6813 116.261 26.1771C115.29 26.6657 114.186 26.9136 112.946 26.9136Z" fill="white"/>
<path d="M129.405 26.9136C127.11 26.9136 125.205 26.1912 123.697 24.7535C122.181 23.3159 121.431 21.4603 121.431 19.194C121.431 16.9278 122.181 15.0864 123.683 13.7054C125.184 12.3244 127.089 11.6374 129.412 11.6374C131.735 11.6374 133.69 12.3314 135.198 13.7266C136.707 15.1218 137.458 16.949 137.458 19.2153C137.458 21.4816 136.7 23.3159 135.191 24.7535C133.676 26.1912 131.756 26.9136 129.419 26.9136H129.405ZM129.405 23.7195C130.652 23.7195 131.664 23.3017 132.45 22.4589C133.237 21.6161 133.633 20.5397 133.633 19.2153C133.633 17.8909 133.237 16.8711 132.45 16.0425C131.664 15.2068 130.644 14.796 129.405 14.796C128.166 14.796 127.174 15.2068 126.402 16.0354C125.63 16.864 125.241 17.9263 125.241 19.2224C125.241 20.5184 125.623 21.6303 126.388 22.466C127.153 23.3088 128.159 23.7266 129.405 23.7266V23.7195ZM125.567 10.8725L127.932 7.91926H130.999L133.322 10.8725H130.63L129.426 9.2153L128.222 10.8725H125.567ZM132.344 8.95326L134.086 6H137.528L134.894 8.95326H132.344Z" fill="white"/>
<path d="M146.983 26.9136C144.717 26.9136 142.833 26.1983 141.324 24.7606C139.816 23.33 139.065 21.4887 139.065 19.2507C139.065 17.0127 139.823 15.1289 141.331 13.7266C142.847 12.3244 144.745 11.6303 147.04 11.6303C148.102 11.6303 149.136 11.8215 150.127 12.1969C151.119 12.5722 151.919 13.0963 152.514 13.762L150.127 16.1416C149.809 15.6884 149.391 15.3555 148.86 15.136C148.336 14.9164 147.769 14.8102 147.16 14.8102C145.928 14.8102 144.915 15.228 144.122 16.0708C143.329 16.9136 142.932 17.9759 142.932 19.2578C142.932 20.5397 143.322 21.6374 144.093 22.466C144.865 23.2946 145.878 23.7054 147.118 23.7054C147.783 23.7054 148.385 23.5708 148.924 23.2946C149.462 23.0184 149.894 22.6643 150.212 22.2323L152.677 24.5482C151.997 25.2989 151.183 25.8867 150.22 26.2974C149.256 26.7153 148.18 26.9207 146.976 26.9207L146.983 26.9136Z" fill="white"/>
</g>
<defs>
<clipPath id="clip0_434_3048">
<rect width="180" height="59.915" fill="white" transform="translate(0 6)"/>
</clipPath>
</defs>
</svg>
